<?xml version="1.0" encoding="utf-8"?>
<!-- Generator: Adobe Illustrator 16.0.0, SVG Export Plug-In . SVG Version: 6.00 Build 0)  -->
<!DOCTYPE svg PUBLIC "-//W3C//DTD SVG 1.1//EN" "http://www.w3.org/Graphics/SVG/1.1/DTD/svg11.dtd">
<svg version="1.1" id="_x31_" xmlns="http://www.w3.org/2000/svg" xmlns:xlink="http://www.w3.org/1999/xlink" x="0px" y="0px"
	 width="44px" height="44px" viewBox="0 0 44 44" enable-background="new 0 0 44 44" xml:space="preserve">
<path fill-rule="evenodd" clip-rule="evenodd" fill="#dbdbdb" d="M31,29.601c0.552,0,1,0.448,1,1c0,0.552-0.448,1-1,1H13
	c-0.553,0-1-0.448-1-1c0-0.552,0.447-1,1-1H31L31,29.601z M22.041,18.837c-4.035,0-7.687,2.427-9.24,6.172
	c-0.328,0.793-0.231,0.65-0.231,1.613c0,0.552,0.447,1,1,1c5.648,0,11.296,0.001,16.944,0.001c0.553,0,1-0.448,1-1
	c0-0.747,0.059-0.915-0.231-1.615C29.735,21.282,26.097,18.837,22.041,18.837L22.041,18.837z M22.041,20.837
	c3.186,0,6.053,1.885,7.328,4.785H17.99c0.947-1.266,2.423-2.009,4.007-2.009c0.276,0,0.5-0.224,0.5-0.5s-0.224-0.5-0.5-0.5
	c-2.15,0-4.13,1.148-5.201,3.009h-2.082C15.991,22.715,18.864,20.837,22.041,20.837L22.041,20.837z M28.174,16.773
	c-0.276,0.479-0.112,1.09,0.366,1.367c0.478,0.276,1.09,0.112,1.366-0.366l1-1.732c0.275-0.478,0.111-1.09-0.366-1.366
	c-0.479-0.276-1.09-0.112-1.366,0.366L28.174,16.773L28.174,16.773z M15.905,16.773c0.276,0.478,0.112,1.09-0.366,1.366
	c-0.479,0.276-1.09,0.112-1.366-0.366l-1-1.732c-0.275-0.479-0.112-1.09,0.366-1.366c0.479-0.276,1.09-0.112,1.366,0.366
	L15.905,16.773L15.905,16.773z M23.039,12.398c0-0.552-0.447-1-1-1c-0.552,0-1,0.448-1,1c0,2.946,0.001,0.92,0.001,3.001
	c0,0.552,0.448,1,1,1c0.553,0,1-0.448,1-1C23.04,12.853,23.039,15.801,23.039,12.398z"/>
</svg>
