<?xml version="1.0" encoding="utf-8"?>
<!-- Generator: Adobe Illustrator 16.0.0, SVG Export Plug-In . SVG Version: 6.00 Build 0)  -->
<!DOCTYPE svg PUBLIC "-//W3C//DTD SVG 1.1//EN" "http://www.w3.org/Graphics/SVG/1.1/DTD/svg11.dtd">
<svg version="1.1" id="_x31_" xmlns="http://www.w3.org/2000/svg" xmlns:xlink="http://www.w3.org/1999/xlink" x="0px" y="0px"
	 width="44px" height="44px" viewBox="0 0 44 44" enable-background="new 0 0 44 44" xml:space="preserve">
<path fill-rule="evenodd" clip-rule="evenodd" fill="#dbdbdb" d="M21.283,13.292c0.39-0.39,1.023-0.39,1.414,0
	c0.391,0.391,0.391,1.024,0,1.415c-2.096,2.096-4.186,4.197-6.281,6.293h13.583c0.552,0,1,0.448,1,1s-0.448,1-1,1H16.416
	c2.096,2.096,4.186,4.198,6.281,6.293c0.391,0.39,0.391,1.024,0,1.414s-1.024,0.39-1.414,0c-2.665-2.665-5.323-5.335-7.988-8
	c-0.391-0.391-0.391-1.024,0-1.415C15.96,18.628,18.618,15.957,21.283,13.292z"/>
</svg>
