<?xml version="1.0" encoding="utf-8"?>
<!-- Generator: Adobe Illustrator 16.0.0, SVG Export Plug-In . SVG Version: 6.00 Build 0)  -->
<!DOCTYPE svg PUBLIC "-//W3C//DTD SVG 1.1//EN" "http://www.w3.org/Graphics/SVG/1.1/DTD/svg11.dtd">
<svg version="1.1" id="_x31_" xmlns="http://www.w3.org/2000/svg" xmlns:xlink="http://www.w3.org/1999/xlink" x="0px" y="0px"
	 width="44px" height="44px" viewBox="0 0 44 44" enable-background="new 0 0 44 44" xml:space="preserve">
<path fill-rule="evenodd" clip-rule="evenodd" fill="#50b0a1" d="M25,22c0.552,0,1,0.448,1,1c0,0.552-0.448,1-1,1
	c-2.667,0-3.333,0-6,0c-0.552,0-1-0.448-1-1c0-0.552,0.448-1,1-1C21.667,22,22.333,22,25,22L25,22z M9.999,17l0,7
	c0,3.839,3.161,7,7,7v2c0,0.552,0.448,1,1,1h1l5-3h3c3.839,0,7-3.162,7-7v-7c0-3.839-3.162-7-7-7H16.999
	C13.161,10,9.999,13.161,9.999,17L9.999,17z M11.999,17l0,7c0,2.742,2.258,5,5,5h1c0.552,0,1,0.448,1,1v1.535L23.171,29H27
	c2.742,0,5-2.259,5-5v-7c0-2.742-2.258-5-5-5L17,12C14.257,12,11.999,14.257,11.999,17L11.999,17z M25,18c0.552,0,1,0.448,1,1
	s-0.448,1-1,1c-2.667,0-3.333,0-6,0c-0.552,0-1-0.448-1-1s0.448-1,1-1C21.667,18,22.333,18,25,18z"/>
</svg>
