<svg xmlns="http://www.w3.org/2000/svg" width="24.001" height="24.001" viewBox="0 0 24.001 24.001">
  <path fill-rule="evenodd" clip-rule="evenodd" fill="#63bb80" d="M2 10c0-4.417 3.583-8 8.001-8 4.417 0 8 3.583 8 8 0 4.418-3.583 8.001-8 8.001C5.583 18.001 2 14.418 2 10zm21.708 12.294c-2.219-2.219-3.263-3.263-4.244-4.243-.39-.391-1.024-.391-1.414 0-.39.39-.39 1.023 0 1.414 1.414 1.414 2.829 2.829 4.244 4.243.39.391 1.024.391 1.414 0 .391-.39.391-1.023 0-1.414zM20.001 10c0-5.522-4.479-10-10-10C4.478 0 0 4.479 0 10c0 5.522 4.478 10.001 10.001 10.001 5.521 0 10-4.478 10-10.001z"/>
</svg>
