<?xml version="1.0" encoding="utf-8"?>
<!-- Generator: Adobe Illustrator 16.0.0, SVG Export Plug-In . SVG Version: 6.00 Build 0)  -->
<!DOCTYPE svg PUBLIC "-//W3C//DTD SVG 1.1//EN" "http://www.w3.org/Graphics/SVG/1.1/DTD/svg11.dtd">
<svg version="1.1" id="Слой_1" xmlns="http://www.w3.org/2000/svg" xmlns:xlink="http://www.w3.org/1999/xlink" x="0px" y="0px"
	 width="18.972px" height="18.972px" viewBox="0 0 18.972 18.972" enable-background="new 0 0 18.972 18.972" xml:space="preserve">
<path fill-rule="evenodd" clip-rule="evenodd" fill="#050505" d="M7.364,13.021c-1.885,1.886-3.771,3.771-5.657,5.657
	c-0.39,0.391-1.023,0.391-1.414,0s-0.391-1.024,0-1.414c1.886-1.886,3.771-3.772,5.657-5.657c-0.942-0.943-1.886-1.886-2.828-2.829
	c-0.391-0.39-0.391-1.023,0-1.414s1.023-0.391,1.414,0c2.357-2.357,4.715-4.714,7.071-7.071c0.391-0.391,1.023-0.391,1.414,0
	c1.886,1.885,3.771,3.771,5.657,5.657c0.391,0.391,0.391,1.024,0,1.415c-2.356,2.357-4.714,4.715-7.071,7.072
	c0.391,0.39,0.391,1.023,0,1.414c-0.391,0.39-1.023,0.39-1.414,0C9.251,14.907,8.308,13.964,7.364,13.021L7.364,13.021z M5.95,8.778
	c1.414,1.415,2.829,2.829,4.243,4.243c2.121-2.121,4.243-4.243,6.364-6.364c-1.414-1.414-2.829-2.829-4.243-4.243
	C10.193,4.535,8.071,6.657,5.95,8.778z"/>
</svg>
