<svg xmlns="http://www.w3.org/2000/svg" width="20.002" height="23.727" viewBox="0 0 20.002 23.727">
  <path fill="#63bb80" d="M10.001 0C4.479 0 0 4.478 0 10c0 2.761 1.12 5.261 2.929 7.07 2.114 2.114 4.228 4.229 6.342 6.343.385.409 1.04.42 1.436.022l6.365-6.365c1.81-1.81 2.93-4.31 2.93-7.07 0-5.522-4.48-10-10.001-10zm5.656 15.657L10 21.314l-5.657-5.656C2.896 14.209 2 12.209 2 10c0-4.418 3.583-8 8.001-8s8 3.583 8 8c0 2.208-.897 4.208-2.344 5.657zM10 5.571c-2.209 0-4 1.79-4 4s1.792 4 4 4 4-1.79 4-4c0-2.209-1.791-4-4-4zm.001 7c-1.656 0-3-1.344-3-3 0-1.655 1.344-3 3-3s3 1.345 3 3c0 1.656-1.344 3-3 3z"/>
</svg>
