<?xml version="1.0" encoding="utf-8"?>
<!-- Generator: Adobe Illustrator 16.0.0, SVG Export Plug-In . SVG Version: 6.00 Build 0)  -->
<!DOCTYPE svg PUBLIC "-//W3C//DTD SVG 1.1//EN" "http://www.w3.org/Graphics/SVG/1.1/DTD/svg11.dtd">
<svg version="1.1" id="Слой_1" xmlns="http://www.w3.org/2000/svg" xmlns:xlink="http://www.w3.org/1999/xlink" x="0px" y="0px"
	 width="18.001px" height="18.001px" viewBox="0 0 18.001 18.001" enable-background="new 0 0 18.001 18.001" xml:space="preserve">
<path fill-rule="evenodd" clip-rule="evenodd" fill="#63bb80" d="M11,8c0.553,0,1,0.448,1,1s-0.447,1-1,1H3.414
	c2.431,2.431,1.857,1.857,4.288,4.288c0.391,0.391,0.391,1.024,0,1.415s-1.024,0.39-1.414,0c-3.001-3-2.995-2.996-5.995-5.995
	c-0.391-0.391-0.391-1.024,0-1.415C3.294,5.294,3.297,5.289,6.297,2.29c0.39-0.391,1.023-0.391,1.414,0
	c0.391,0.39,0.391,1.024,0,1.414C5.279,6.135,5.846,5.57,3.414,8H11L11,8z M18.001,1c0-0.552-0.448-1-1.001-1c-0.552,0-1,0.448-1,1
	c0,18.476,0-2.5,0,16c0,0.552,0.448,1,1,1c0.553,0,1.001-0.448,1.001-1C18.001-1.716,18.001,19.683,18.001,1z"/>
</svg>
