<svg xmlns="http://www.w3.org/2000/svg" width="24.002" height="20.001" viewBox="0 0 24.002 20.001"><path fill-rule="evenodd" clip-rule="evenodd" fill="#515151" d="M1 20.001c-.552 0-1-.448-1-1V1c0-.552.448-1 1-1h22.001c.552 0 1 .448 1 1v18.001c0 .552-.448 1-1 1H1zm21.002-2v-4.486c-1.919-1.919-3.838-3.838-5.757-5.758l-3.537 3.536c-.181.181-.431.293-.707.293-.288 0-.546-.122-.729-.316L7.758 7.757 2 13.515v4.486h20.002zm0-5.901V2l-5.05 5.05c1.683 1.683 3.366 3.367 5.05 5.05zM2 2v10.1c1.683-1.683 3.367-3.366 5.05-5.05L2 2zm17.173 0H4.83c2.391 2.391 4.781 4.781 7.171 7.172L19.173 2z"/></svg>