<?xml version="1.0" encoding="utf-8"?>
<!-- Generator: Adobe Illustrator 16.0.0, SVG Export Plug-In . SVG Version: 6.00 Build 0)  -->
<!DOCTYPE svg PUBLIC "-//W3C//DTD SVG 1.1//EN" "http://www.w3.org/Graphics/SVG/1.1/DTD/svg11.dtd">
<svg version="1.1" id="_x31_" xmlns="http://www.w3.org/2000/svg" xmlns:xlink="http://www.w3.org/1999/xlink" x="0px" y="0px"
	 width="44px" height="44px" viewBox="0 0 44 44" enable-background="new 0 0 44 44" xml:space="preserve">
<path fill-rule="evenodd" clip-rule="evenodd" fill="#50b0a1" d="M30.702,14.713c0.391-0.391,0.39-1.024,0-1.415
	c-0.391-0.39-1.024-0.391-1.415,0l-4.58,4.581c0-3.438,0-0.441,0-3.879c0-0.552-0.448-1-1-1s-1,0.448-1,1
	c0,4.243,0.001,2.05,0,6.293c0,0.552,0.448,1,1,1c4.242-0.001,2.051,0,6.294,0c0.551,0,1-0.448,1-1s-0.449-1-1-1
	c-3.438,0-0.441-0.001-3.879,0L30.702,14.713L30.702,14.713z M14.709,30.706c-0.391,0.391-1.024,0.39-1.414,0
	c-0.391-0.39-0.391-1.024-0.001-1.414l4.585-4.585c-3.438,0-0.441,0-3.879,0c-0.553,0-1-0.448-1-1c0-0.552,0.447-1,1-0.999
	c4.243,0,2.05,0,6.293-0.001c0.553,0,1,0.448,1,1c-0.002,4.243,0.009,2.051,0.009,6.293c0,0.552-0.448,1-1,1s-0.999-0.448-0.999-1
	c0-3.438-0.012-0.441-0.01-3.879L14.709,30.706z"/>
</svg>
