<?xml version="1.0" encoding="utf-8"?>
<!-- Generator: Adobe Illustrator 16.0.0, SVG Export Plug-In . SVG Version: 6.00 Build 0)  -->
<!DOCTYPE svg PUBLIC "-//W3C//DTD SVG 1.1//EN" "http://www.w3.org/Graphics/SVG/1.1/DTD/svg11.dtd">
<svg version="1.1" id="_x31_" xmlns="http://www.w3.org/2000/svg" xmlns:xlink="http://www.w3.org/1999/xlink" x="0px" y="0px"
	 width="44px" height="44px" viewBox="0 0 44 44" enable-background="new 0 0 44 44" xml:space="preserve">
<path fill-rule="evenodd" clip-rule="evenodd" fill="#50b0a1" d="M10.397,17.617l7.229-1.228L20.968,10l2.063,0l0.095,0.182
	l3.245,6.207l7.229,1.228l0,0l0.806,2.037l-4.925,5.041l1.164,7.924l-1.713,1.383l-6.935-3.436l-6.928,3.433l-1.718-1.38
	l1.165-7.923l-4.925-5.039L10.397,17.617L10.397,17.617L10.397,17.617z M18.219,26.854L19.208,27l0.49-3.319l-2.513-2.584
	l-0.717,0.697l2.169,2.23L18.219,26.854L18.219,26.854z M21.999,28.333c2.156,1.068,4.311,2.136,6.467,3.205l-0.741-5.045
	l-0.365-2.487l4.542-4.648c-2.285-0.389-4.562-0.775-6.845-1.166l-3.059-5.85l-3.06,5.853l-6.841,1.163l2.783,2.862l1.756,1.806
	l-1.104,7.513L21.999,28.333z"/>
</svg>
