<svg xmlns="http://www.w3.org/2000/svg" width="24.002" height="24.002" viewBox="0 0 24.002 24.002"><path fill-rule="evenodd" clip-rule="evenodd" fill="#63bb80" d="M8 0C3.613 0 0 3.613 0 8v4.01c0 4.388 3.614 8 8 8v2.992c0 .552.448 1 1 1h1l3.996-3.996L16 20.01c4.388 0 8.002-3.613 8.002-8V8c0-4.387-3.614-8-8-8H8zm7 11c.553 0 1 .45 1 1 0 .553-.447 1-1 1H9c-.552 0-1-.447-1-1 0-.55.448-1 1-1h6zm0-4c.553 0 1 .448 1 1 0 .553-.447 1-1 1H9c-.552 0-1-.447-1-1 0-.552.448-1 1-1h6zm-1.83 11.006L10 21.173v-2.167c0-.552-.447-1-1-1l-1 .005c-3.29 0-6-2.71-6-6V8c0-3.29 2.71-6 6-6h8c3.29 0 6 2.71 6 6v4.01c0 3.29-2.71 6-6 6l-2.83-.004z"/></svg>