<?xml version="1.0" encoding="utf-8"?>
<!-- Generator: Adobe Illustrator 16.0.0, SVG Export Plug-In . SVG Version: 6.00 Build 0)  -->
<!DOCTYPE svg PUBLIC "-//W3C//DTD SVG 1.1//EN" "http://www.w3.org/Graphics/SVG/1.1/DTD/svg11.dtd">
<svg version="1.1" id="Слой_1" xmlns="http://www.w3.org/2000/svg" xmlns:xlink="http://www.w3.org/1999/xlink" x="0px" y="0px"
	 width="11.001px" height="20.001px" viewBox="0 0 11.001 20.001" enable-background="new 0 0 11.001 20.001" xml:space="preserve">
<path fill="#d2d2d2" fill-rule="evenodd" clip-rule="evenodd" d="M0.293,9.294c-0.391,0.391-0.391,1.023,0,1.414c3,3,6.001,6.001,9.001,9.001
	c0.39,0.39,1.023,0.39,1.414,0c0.391-0.391,0.391-1.024,0-1.414c-2.687-2.688-5.538-5.537-8.294-8.294
	c2.765-2.765,5.529-5.529,8.294-8.294c0.39-0.39,0.39-1.023,0-1.414c-0.391-0.391-1.024-0.391-1.415,0
	C6.294,3.293,3.293,6.294,0.293,9.294z"/>
</svg>
