<?xml version="1.0" encoding="utf-8"?>
<!-- Generator: Adobe Illustrator 16.0.0, SVG Export Plug-In . SVG Version: 6.00 Build 0)  -->
<!DOCTYPE svg PUBLIC "-//W3C//DTD SVG 1.1//EN" "http://www.w3.org/Graphics/SVG/1.1/DTD/svg11.dtd">
<svg version="1.1" id="_x31_" xmlns="http://www.w3.org/2000/svg" xmlns:xlink="http://www.w3.org/1999/xlink" x="0px" y="0px"
	 width="44px" height="44px" viewBox="0 0 44 44" enable-background="new 0 0 44 44" xml:space="preserve">
<path fill-rule="evenodd" clip-rule="evenodd" fill="#252626" d="M16,15.499h12v0c2.209,0,4,1.791,4,4h0v2l0,0h1
	c0.552,0,1,0.448,1,1v1v2v1c0,0.552-0.448,1-1,1h-1v2h0c0,2.208-1.791,4-4,4l0,0H14l0,0c-2.209,0-4-1.792-4-4h0V16.5l2,0V29.5
	c0,1.104,0.896,2,2,2h14c1.104,0,2-0.896,2-2v-2h-3.268v0c-0.407,0-0.795-0.081-1.148-0.228c-0.367-0.152-0.697-0.375-0.973-0.651
	c-0.276-0.276-0.499-0.606-0.651-0.973c-0.146-0.354-0.228-0.742-0.228-1.148s0.081-0.794,0.228-1.148
	c0.152-0.367,0.375-0.697,0.651-0.973c0.276-0.276,0.606-0.499,0.973-0.651c0.354-0.146,0.742-0.228,1.148-0.228H30v-2
	c0-1.104-0.896-2-2-2H16h-1c-0.552,0-1-0.448-1-1c0-0.552,0.448-1,1-1H16L16,15.499z M18,13.5h-0.5c-0.276,0-0.5,0.224-0.5,0.5
	c0,0.276,0.224,0.5,0.5,0.5H18h7h0.5c0.276,0,0.5-0.224,0.5-0.5c0-0.276-0.224-0.5-0.5-0.5H25H18L18,13.5z M9.999,16.499h2
	c0-0.542,0.108-1.059,0.304-1.531c0.203-0.488,0.5-0.929,0.868-1.297c0.369-0.368,0.809-0.666,1.297-0.868
	c0.472-0.195,0.989-0.303,1.531-0.303H26h1c0.552,0,1-0.448,1-1s-0.448-1-1-1h-1H15.999c-0.813,0-1.589,0.162-2.296,0.456
	c-0.733,0.304-1.393,0.75-1.946,1.302c-0.553,0.553-0.998,1.213-1.302,1.946C10.161,14.91,9.999,15.686,9.999,16.499L9.999,16.499z
	 M32,25.5v-2l0,0h-5.268v0c-0.136,0-0.265,0.027-0.383,0.076c-0.122,0.051-0.232,0.125-0.324,0.217
	c-0.092,0.092-0.166,0.202-0.217,0.324c-0.049,0.118-0.076,0.248-0.076,0.383s0.027,0.265,0.076,0.383
	c0.051,0.123,0.125,0.232,0.217,0.325c0.092,0.092,0.202,0.166,0.324,0.217c0.118,0.049,0.248,0.076,0.383,0.076H32z"/>
</svg>
