<?xml version="1.0" encoding="utf-8"?>
<!-- Generator: Adobe Illustrator 16.0.0, SVG Export Plug-In . SVG Version: 6.00 Build 0)  -->
<!DOCTYPE svg PUBLIC "-//W3C//DTD SVG 1.1//EN" "http://www.w3.org/Graphics/SVG/1.1/DTD/svg11.dtd">
<svg version="1.1" id="_x31_" xmlns="http://www.w3.org/2000/svg" xmlns:xlink="http://www.w3.org/1999/xlink" x="0px" y="0px"
	 width="44px" height="44px" viewBox="0 0 44 44" enable-background="new 0 0 44 44" xml:space="preserve">
<path fill-rule="evenodd" clip-rule="evenodd" fill="#50b0a1" d="M13,21c-0.553,0-1,0.448-1,1s0.447,1,1,1h7.586
	c-2.431,2.431-1.857,1.857-4.288,4.288c-0.391,0.39-0.391,1.024,0,1.414s1.024,0.39,1.414,0c3-3,2.995-2.996,5.995-5.995
	c0.391-0.391,0.391-1.024,0-1.415c-3.001-2.999-3.004-3.004-6.004-6.004c-0.391-0.39-1.023-0.39-1.414,0
	c-0.391,0.391-0.391,1.024,0,1.415c2.431,2.431,1.864,1.867,4.297,4.297H13L13,21z M32.001,31v-3H29v3H32.001L32.001,31z
	 M32.001,23.5v-3H29v3H32.001L32.001,23.5z M32.001,16v-3H29v3H32.001z"/>
</svg>
