<?xml version="1.0" encoding="utf-8"?>
<!-- Generator: Adobe Illustrator 16.0.0, SVG Export Plug-In . SVG Version: 6.00 Build 0)  -->
<!DOCTYPE svg PUBLIC "-//W3C//DTD SVG 1.1//EN" "http://www.w3.org/Graphics/SVG/1.1/DTD/svg11.dtd">
<svg version="1.1" id="_x31_" xmlns="http://www.w3.org/2000/svg" xmlns:xlink="http://www.w3.org/1999/xlink" x="0px" y="0px"
	 width="44px" height="44px" viewBox="0 0 44 44" enable-background="new 0 0 44 44" xml:space="preserve">
<path fill-rule="evenodd" clip-rule="evenodd" fill="#dbdbdb" d="M26,18c2.209,0,4,1.792,4,4c0,2.208-1.791,4-4,4v-1
	c0-0.552-0.447-1-1-1c-0.552,0-1,0.448-1,1v2c0,0.552,0.448,1,1,1l1,0c3.313,0,6-2.687,6-6c0-3.313-2.687-6-6-6h-1
	c-0.552,0-1,0.448-1,1v2c0,0.552,0.448,1,1,1c0.553,0,1-0.448,1-1V18L26,18z M19,20.998c2,0,4,0,6,0c0.553,0,1,0.448,1,1
	c0,0.552-0.447,1-1,1c-2,0-4,0-6,0c-0.553,0-1-0.448-1-1C18,21.446,18.447,20.998,19,20.998L19,20.998z M18,18v1
	c0,0.552,0.447,1,1,1c0.552,0,1-0.448,1-1v-2c0-0.552-0.448-1-1-1h-1c-3.313,0-6,2.687-6,6s2.687,6,6,6l1,0c0.552,0,1-0.448,1-1v-2
	c0-0.552-0.448-1-1-1c-0.553,0-1,0.448-1,1v1c-2.209,0-4-1.792-4-4S15.791,18,18,18z"/>
</svg>
