<?xml version="1.0" encoding="utf-8"?>
<!-- Generator: Adobe Illustrator 16.0.0, SVG Export Plug-In . SVG Version: 6.00 Build 0)  -->
<!DOCTYPE svg PUBLIC "-//W3C//DTD SVG 1.1//EN" "http://www.w3.org/Graphics/SVG/1.1/DTD/svg11.dtd">
<svg version="1.1" id="_x31_" xmlns="http://www.w3.org/2000/svg" xmlns:xlink="http://www.w3.org/1999/xlink" x="0px" y="0px"
	 width="44px" height="44px" viewBox="0 0 44 44" enable-background="new 0 0 44 44" xml:space="preserve">
<path fill-rule="evenodd" clip-rule="evenodd" fill="#1c1c1c" d="M20.365,25.049c-1.885,1.886-3.771,3.772-5.657,5.658
	c-0.39,0.39-1.024,0.39-1.414,0c-0.391-0.391-0.391-1.024,0-1.415c1.885-1.886,3.771-3.771,5.657-5.657
	c-0.942-0.942-1.886-1.886-2.829-2.829c-0.39-0.39-0.39-1.024,0-1.414c0.391-0.391,1.024-0.391,1.415,0
	c2.357-2.357,3.742-3.742,6.099-6.099c0.39-0.391,1.023-0.391,1.414,0c1.886,1.886,3.771,3.771,5.657,5.657
	c0.391,0.391,0.391,1.023,0,1.414c-2.357,2.357-3.742,3.742-6.099,6.1c0.391,0.39,0.391,1.023,0,1.414
	c-0.39,0.39-1.023,0.39-1.414,0C22.251,26.935,21.308,25.992,20.365,25.049L20.365,25.049z M18.95,20.806
	c1.415,1.414,2.829,2.829,4.243,4.243c2.121-2.121,3.271-3.271,5.392-5.392c-1.414-1.414-2.829-2.829-4.243-4.243
	C22.221,17.536,21.071,18.685,18.95,20.806z"/>
</svg>
