<?xml version="1.0" encoding="utf-8"?>
<!-- Generator: Adobe Illustrator 16.0.0, SVG Export Plug-In . SVG Version: 6.00 Build 0)  -->
<!DOCTYPE svg PUBLIC "-//W3C//DTD SVG 1.1//EN" "http://www.w3.org/Graphics/SVG/1.1/DTD/svg11.dtd">
<svg version="1.1" id="_x31_" xmlns="http://www.w3.org/2000/svg" xmlns:xlink="http://www.w3.org/1999/xlink" x="0px" y="0px"
	 width="44px" height="44px" viewBox="0 0 44 44" enable-background="new 0 0 44 44" xml:space="preserve">
<path fill-rule="evenodd" clip-rule="evenodd" fill="#50b0a1" d="M20.1,31c0,0.552,0.448,1,1,1h1.797v0c0.552,0,1-0.448,1-1v-2H20.1
	V31L20.1,31z M26.001,17.998c0,0.276-0.224,0.5-0.5,0.5c-0.276,0-0.5-0.224-0.5-0.5c0-0.407-0.081-0.795-0.228-1.148
	c-0.152-0.367-0.375-0.697-0.651-0.973c-0.276-0.277-0.606-0.5-0.973-0.651c-0.354-0.146-0.742-0.228-1.148-0.228
	c-0.407,0-0.795,0.081-1.148,0.228c-0.367,0.152-0.696,0.375-0.973,0.651c-0.195,0.195-0.512,0.195-0.707,0
	c-0.195-0.195-0.195-0.512,0-0.707c0.368-0.369,0.808-0.666,1.297-0.868c0.472-0.196,0.989-0.304,1.531-0.304
	c0.542,0,1.059,0.108,1.531,0.304c0.489,0.203,0.929,0.5,1.297,0.868c0.368,0.369,0.665,0.809,0.868,1.297
	C25.893,16.938,26.001,17.455,26.001,17.998L26.001,17.998z M29,24.999c0.195-0.195,0.512-0.195,0.707,0
	c0.471,0.472,1.82,1.823,2.292,2.294c0.195,0.195,0.195,0.512,0,0.707s-0.512,0.195-0.708,0c-0.471-0.471-1.82-1.823-2.291-2.294
	C28.805,25.511,28.805,25.194,29,24.999L29,24.999z M15,24.999c-0.195-0.195-0.512-0.195-0.708,0
	c-0.471,0.472-1.823,1.823-2.294,2.294c-0.195,0.195-0.195,0.512,0,0.707s0.512,0.195,0.708,0c0.471-0.471,1.823-1.823,2.294-2.294
	C15.195,25.511,15.195,25.194,15,24.999L15,24.999z M14,13.998c-0.195,0.195-0.512,0.195-0.708,0
	c-0.471-0.471-1.823-1.82-2.294-2.292c-0.195-0.195-0.195-0.512,0-0.707s0.512-0.195,0.708,0c0.471,0.471,1.823,1.82,2.294,2.292
	C14.195,13.486,14.195,13.803,14,13.998L14,13.998z M30,13.998c0.195,0.195,0.512,0.195,0.707,0c0.472-0.471,1.82-1.82,2.292-2.292
	c0.195-0.195,0.195-0.512,0-0.707s-0.512-0.195-0.707,0c-0.472,0.471-1.82,1.82-2.292,2.292C29.805,13.486,29.805,13.803,30,13.998
	L30,13.998z M33.5,19.499c0.276,0,0.5-0.224,0.5-0.5c0-0.276-0.224-0.5-0.5-0.5c-0.667,0-1.333,0-2,0c-0.276,0-0.5,0.224-0.5,0.5
	c0,0.276,0.224,0.5,0.5,0.5C32.167,19.499,32.834,19.499,33.5,19.499L33.5,19.499z M12.5,19.499c0.276,0,0.5-0.224,0.5-0.5
	c0-0.276-0.224-0.5-0.5-0.5c-0.667,0-1.334,0-2,0c-0.276,0-0.5,0.224-0.5,0.5c0,0.276,0.224,0.5,0.5,0.5
	C11.166,19.499,11.833,19.499,12.5,19.499L12.5,19.499z M23.947,27c0.085-0.758,0.276-1.484,0.558-2.164
	c0.405-0.978,0.999-1.858,1.736-2.595c0.553-0.552,0.998-1.212,1.302-1.946c0.293-0.707,0.456-1.483,0.456-2.296
	s-0.162-1.589-0.456-2.296c-0.304-0.733-0.75-1.394-1.302-1.946c-0.552-0.553-1.212-0.998-1.946-1.302
	c-0.708-0.293-1.483-0.456-2.296-0.456s-1.589,0.162-2.296,0.456c-0.733,0.304-1.394,0.75-1.946,1.302
	c-0.552,0.553-0.998,1.213-1.302,1.946c-0.293,0.708-0.455,1.483-0.455,2.297s0.162,1.589,0.455,2.297
	c0.304,0.733,0.75,1.393,1.302,1.945c0.737,0.737,1.331,1.617,1.736,2.595c0.282,0.679,0.473,1.405,0.558,2.163L23.947,27L23.947,27
	z M17.644,25.602c-0.304-0.733-0.75-1.394-1.302-1.946c-0.737-0.737-1.331-1.617-1.736-2.595c-0.391-0.943-0.607-1.977-0.607-3.062
	c0-1.085,0.216-2.119,0.607-3.063c0.405-0.978,0.999-1.858,1.736-2.594c0.736-0.737,1.616-1.331,2.594-1.736
	c0.943-0.391,1.978-0.607,3.062-0.607s2.119,0.216,3.062,0.607c0.978,0.406,1.857,1,2.594,1.736s1.331,1.616,1.736,2.594
	c0.391,0.943,0.607,1.978,0.607,3.063c0,1.084-0.216,2.119-0.607,3.062c-0.405,0.978-0.999,1.857-1.736,2.595l0,0
	c-0.552,0.553-0.998,1.213-1.302,1.946c-0.293,0.708-0.456,1.483-0.456,2.297V31c0,1.657-1.343,3-3,3H21.1v0c-1.656,0-3-1.344-3-3
	v-3.102C18.1,27.084,17.938,26.309,17.644,25.602z"/>
</svg>
