<svg xmlns="http://www.w3.org/2000/svg" width="24.002" height="24.001" viewBox="0 0 24.002 24.001">
  <path fill-rule="evenodd" clip-rule="evenodd" fill="#63bb80" d="M1 21.587c1.876-1.875 4.418-2.929 7.071-2.929h7.859c2.652 0 5.195 1.053 7.071 2.929l.707.708c.391.39.391 1.024 0 1.414s-1.024.39-1.414 0l-.708-.707c-1.496-1.497-3.54-2.343-5.656-2.343H8.071c-2.116 0-4.161.847-5.657 2.343-.707.707-.483.478-.707.707-.391.39-1.024.39-1.414 0-.391-.39-.391-1.024 0-1.414.758-.759 0-.001.707-.708zM5.001 7c0 3.838 3.162 7 7 7s7-3.162 7-7c0-3.837-3.162-7-7-7s-7 3.162-7 7zm7-5c2.741 0 5 2.259 5 5s-2.26 5-5 5c-2.741 0-5-2.258-5-5 0-2.741 2.259-5 5-5z"/>
</svg>
