<?xml version="1.0" encoding="utf-8"?>
<!-- Generator: Adobe Illustrator 16.0.0, SVG Export Plug-In . SVG Version: 6.00 Build 0)  -->
<!DOCTYPE svg PUBLIC "-//W3C//DTD SVG 1.1//EN" "http://www.w3.org/Graphics/SVG/1.1/DTD/svg11.dtd">
<svg version="1.1" id="_x31_" xmlns="http://www.w3.org/2000/svg" xmlns:xlink="http://www.w3.org/1999/xlink" x="0px" y="0px"
	 width="44px" height="44px" viewBox="0 0 44 44" enable-background="new 0 0 44 44" xml:space="preserve">
<path fill-rule="evenodd" clip-rule="evenodd" fill="#2776c1" d="M15,12.999h14.001c1.656,0,3,1.344,3,3V28l0,0c0,1.657-1.344,3-3,3
	v0h-8.122h-1c-0.552,0-1-0.448-1-1v-1l0.002-5.708l-0.583,0.583l0,0l-0.707,0.707c-0.391,0.391-1.023,0.391-1.414,0
	c-0.391-0.39-0.391-1.024,0-1.414l0.707-0.707l1.582-1.583l0.707-0.707c0.391-0.391,1.024-0.391,1.415,0l0.706,0.707l1.583,1.583
	l0.707,0.707c0.391,0.39,0.391,1.024,0,1.414c-0.391,0.391-1.023,0.391-1.414,0l-0.707-0.707l0,0l-0.582-0.582L20.879,29h8.122
	c0.552,0,1-0.448,1-1V16.413L26.415,20l-0.707,0.707c-0.391,0.391-1.024,0.391-1.415,0c-0.39-0.39-0.39-1.024,0-1.414l0.708-0.707
	l3.586-3.586H15.414l1.087,1.087l0.707,0.707c0.391,0.391,0.391,1.024,0,1.415c-0.391,0.39-1.024,0.39-1.414,0L15.087,17.5
	L14,16.413V28h-0.001c0,0.552,0.448,1,1.001,1c0.552,0,1,0.448,1,1s-0.448,1-1,1v0c-1.656,0-3-1.343-3-3V15.999l0,0
	C12,14.343,13.344,12.999,15,12.999z"/>
</svg>
