<?xml version="1.0" encoding="utf-8"?>
<!-- Generator: Adobe Illustrator 16.0.0, SVG Export Plug-In . SVG Version: 6.00 Build 0)  -->
<!DOCTYPE svg PUBLIC "-//W3C//DTD SVG 1.1//EN" "http://www.w3.org/Graphics/SVG/1.1/DTD/svg11.dtd">
<svg version="1.1" id="_x31_" xmlns="http://www.w3.org/2000/svg" xmlns:xlink="http://www.w3.org/1999/xlink" x="0px" y="0px"
	 width="44px" height="44px" viewBox="0 0 44 44" enable-background="new 0 0 44 44" xml:space="preserve">
<path fill-rule="evenodd" clip-rule="evenodd" fill="#d3d3d3" d="M14.999,16H29c1.657,0,3,1.343,3,3h0.001v10H32
	c0,1.657-1.343,3-3,3l0,0H14.999l0,0c-1.656,0-3-1.344-3-3V19C11.999,17.343,13.343,16,14.999,16L14.999,16z M16,12
	c-0.553,0-1,0.448-1,1s0.447,1,1,1h12c0.553,0,1.001-0.448,1.001-1S28.553,12,28,12H16L16,12z M29,17.999L29,17.999l-14.001,0v0
	c-0.552,0-1,0.448-1,1l0,0v10l0,0c0,0.552,0.448,1,1,1H29c0.553,0,1.001-0.448,1.001-1V19C30.001,18.447,29.553,17.999,29,17.999z"
	/>
</svg>
