<?xml version="1.0" encoding="utf-8"?>
<!-- Generator: Adobe Illustrator 16.0.0, SVG Export Plug-In . SVG Version: 6.00 Build 0)  -->
<!DOCTYPE svg PUBLIC "-//W3C//DTD SVG 1.1//EN" "http://www.w3.org/Graphics/SVG/1.1/DTD/svg11.dtd">
<svg version="1.1" id="_x31_" xmlns="http://www.w3.org/2000/svg" xmlns:xlink="http://www.w3.org/1999/xlink" x="0px" y="0px"
	 width="44px" height="44px" viewBox="0 0 44 44" enable-background="new 0 0 44 44" xml:space="preserve">
<path fill-rule="evenodd" clip-rule="evenodd" fill="#d3d3d3" d="M15.728,17.95c0,3.313,2.687,6,6,6c3.313,0,6-2.687,6-6
	s-2.688-6-6-6C18.414,11.95,15.728,14.637,15.728,17.95L15.728,17.95z M30.414,30.929c0.391,0.39,1.024,0.39,1.414,0
	c0.391-0.39,0.391-1.024,0-1.414c-0.855-0.856-1.444-1.508-2.652-2.01c-0.708-0.293-1.483-0.455-2.297-0.455h-4.002
	c-0.552,0-1,0.448-1,1s0.448,1,1,1h4.002c0.542,0,1.06,0.108,1.531,0.304C29.289,29.719,29.768,30.283,30.414,30.929L30.414,30.929z
	 M16.878,27.05h2.001c0.552,0,1,0.448,1,1s-0.448,1-1,1h-2.001v2c0,0.552-0.447,1-1,1c-0.552,0-1-0.448-1-1v-2h-2
	c-0.552,0-1-0.448-1-1s0.448-1,1-1h2v-2c0-0.552,0.448-1,1-1c0.553,0,1,0.448,1,1V27.05L16.878,27.05z M21.728,13.95
	c2.208,0,4,1.792,4,4s-1.792,4-4,4c-2.209,0-4-1.792-4-4S19.519,13.95,21.728,13.95z"/>
</svg>
