<?xml version="1.0" encoding="utf-8"?>
<!-- Generator: Adobe Illustrator 16.0.0, SVG Export Plug-In . SVG Version: 6.00 Build 0)  -->
<!DOCTYPE svg PUBLIC "-//W3C//DTD SVG 1.1//EN" "http://www.w3.org/Graphics/SVG/1.1/DTD/svg11.dtd">
<svg version="1.1" id="_x31_" xmlns="http://www.w3.org/2000/svg" xmlns:xlink="http://www.w3.org/1999/xlink" x="0px" y="0px"
	 width="44px" height="44px" viewBox="0 0 44 44" enable-background="new 0 0 44 44" xml:space="preserve">
<path fill-rule="evenodd" clip-rule="evenodd" fill="#252626" d="M33.001,13c0.552,0,1,0.448,1,1s-0.448,1-1,1
	c-2.667,0-5.334,0-8.001,0c-0.552,0-1-0.448-1-1s0.448-1,1-1C27.667,13,30.334,13,33.001,13L33.001,13z M11.999,14
	c0-0.552,0.448-1,1-1h4c0.552,0,1,0.448,1,1v4c0,0.552-0.448,1-1,1h-4c-0.552,0-1-0.448-1-1V14L11.999,14z M20,18v-4
	c0-1.657-1.343-3-3-3h-4c-1.657,0-3,1.344-3,3v4c0,1.656,1.343,3,3,3h4C18.656,21,20,19.656,20,18L20,18z M13,31
	c-0.552,0-1,0.448-1,1s0.448,1,1,1c6.667,0,13.334,0,20.001,0c0.552,0,1-0.448,1-1s-0.448-1-1-1C26.334,31,19.667,31,13,31L13,31z
	 M13,25c-0.552,0-1,0.448-1,1s0.448,1,1,1c6.667,0,13.334,0,20.001,0c0.552,0,1-0.448,1-1s-0.448-1-1-1C26.334,25,19.667,25,13,25
	L13,25z M25,19c-0.552,0-1,0.448-1,1s0.448,1,1,1c2.667,0,5.334,0,8.001,0c0.552,0,1-0.448,1-1s-0.448-1-1-1
	C30.334,19,27.667,19,25,19z"/>
</svg>
