<?xml version="1.0" encoding="utf-8"?>
<!-- Generator: Adobe Illustrator 16.0.0, SVG Export Plug-In . SVG Version: 6.00 Build 0)  -->
<!DOCTYPE svg PUBLIC "-//W3C//DTD SVG 1.1//EN" "http://www.w3.org/Graphics/SVG/1.1/DTD/svg11.dtd">
<svg version="1.1" id="Слой_1" xmlns="http://www.w3.org/2000/svg" xmlns:xlink="http://www.w3.org/1999/xlink" x="0px" y="0px"
	 width="18.001px" height="18px" viewBox="0 0 18.001 18" enable-background="new 0 0 18.001 18" xml:space="preserve">
<path fill-rule="evenodd" clip-rule="evenodd" fill="#63bb80" d="M7,8C6.448,8,6,8.448,6,9s0.448,1,1,1h7.587c-2.432,2.431-1.857,1.857-4.288,4.288
	c-0.391,0.391-0.391,1.024,0,1.414c0.391,0.391,1.023,0.391,1.414,0c3-3,2.994-2.996,5.995-5.995c0.391-0.391,0.391-1.024,0-1.415
	c-3.001-2.999-3.004-3.004-6.004-6.004c-0.391-0.391-1.024-0.391-1.414,0c-0.391,0.391-0.391,1.024,0,1.415
	C12.721,6.134,12.154,5.57,14.586,8H7L7,8z M0,1c0-0.552,0.448-1,1-1c0.553,0,1,0.448,1,1c0,18.476,0-2.5,0,16c0,0.553-0.447,1-1,1
	c-0.552,0-1-0.448-1-1C0-1.716,0,19.683,0,1z"/>
</svg>
