<svg xmlns="http://www.w3.org/2000/svg" viewBox="0 0 612 792">
  <path fill="#515151" stroke-width="10" stroke-miterlimit="10" d="M191.2 475.9c2.7-2.7 2.7-7.1 0-9.8-2.7-2.7-7.1-2.7-9.8 0L155 492.5c-2.7 2.7-2.7 7.1 0 9.8 1.4 1.4 3.1 2 4.9 2s3.5-.7 4.9-2l26.4-26.4zm174.3-185.4c-6.1 6.1-9.5 14.3-9.5 23s3.4 16.8 9.5 23c6.3 6.3 14.7 9.5 23 9.5s16.7-3.2 23-9.5c6.1-6.1 9.5-14.3 9.5-23s-3.4-16.8-9.5-23c-12.7-12.7-33.3-12.7-46 0zm36.2 36.2c-7.3 7.3-19.1 7.3-26.4 0-3.5-3.5-5.5-8.2-5.5-13.2s1.9-9.7 5.5-13.2c3.6-3.6 8.4-5.5 13.2-5.5 4.8 0 9.6 1.8 13.2 5.5 3.5 3.5 5.5 8.2 5.5 13.2s-2 9.7-5.5 13.2zM213.1 487.9c-2.7-2.7-7.1-2.7-9.8 0L166.2 525c-2.7 2.7-2.7 7.1 0 9.8 1.4 1.4 3.1 2 4.9 2 1.8 0 3.5-.7 4.9-2l37.1-37.1c2.7-2.7 2.7-7.1 0-9.8z"/>
  <path fill="#515151" stroke-width="10" stroke-miterlimit="10" d="M454.6 252.2c-.6-2.3-2.5-4.2-4.8-4.8-25.2-7-52.6-5.6-79 3.9-20.5 7.4-40.5 19.9-54.7 34.1L294.5 307l-78 12.2c-1.4.2-2.8.9-3.8 1.9l-50 49.9c-1.9 1.9-2.6 4.9-1.6 7.4 1 2.6 3.4 4.3 6.2 4.4l49.2 2.1-12.3 12.3c-2.7 2.7-2.7 7.1 0 9.8l7.2 7.2-21.5 33c-1.8 2.7-1.4 6.4.9 8.7l55.3 55.3c2.3 2.3 5.9 2.7 8.7.9l33-21.5 7.2 7.2c2.7 2.7 7.1 2.7 9.8 0l12.3-12.3 2.1 49.2c.1 2.7 1.8 5.2 4.4 6.2.8.3 1.7.5 2.5.5 1.8 0 3.6-.7 4.9-2l49.9-49.9c1-1 1.7-2.4 1.9-3.8l12.2-78 21.5-21.5c14.3-14.3 26.7-34.2 34.1-54.7 9.6-26.7 11-54 4-79.3zM251.9 497.4L204.5 450l16.8-25.8 23.3 23.3-2.7 2.7c-2.7 2.7-2.7 7.1 0 9.8 2.7 2.7 7.1 2.7 9.8 0l2.7-2.7 23.3 23.3-25.8 16.8zm154.8-121.2l-23.1 23.1-24.1 24.1c-2.7 2.7-2.7 7.1 0 9.8 2.7 2.7 7.1 2.7 9.8 0l9.1-9.1-8.9 57-37.1 37.1-1.9-46.2 19.3-19.3c2.7-2.7 2.7-7.1 0-9.8-2.7-2.7-7.1-2.7-9.8 0l-21.5 21.5-18.6 18.6-6.2-6.2-.2-.2-29.2-29.2 83.7-83.7c2.7-2.7 2.7-7.1 0-9.8-2.7-2.7-7.1-2.7-9.8 0l-83.7 83.7-29.2-29.2-.2-.2-6.2-6.2 18.6-18.6 21.5-21.5c2.7-2.7 2.7-7.1 0-9.8-2.7-2.7-7.1-2.7-9.8 0l-19.3 19.3-46.2-1.9 37.1-37.1 57-8.9-9.1 9.1 9.8 9.8 24-24c.1 0 .1-.1.2-.2l23.1-23.1c19.3-19.3 65-47.8 116.5-35.5 12.2 51.6-16.3 97.4-35.6 116.6zM226.1 510.8l-26.4 26.4c-2.7 2.7-2.7 7.1 0 9.8 1.4 1.4 3.1 2 4.9 2 1.8 0 3.5-.7 4.9-2l26.4-26.4c2.7-2.7 2.7-7.1 0-9.8-2.7-2.7-7.1-2.7-9.8 0z"/>
</svg>
