<?xml version="1.0" encoding="utf-8"?>
<!-- Generator: Adobe Illustrator 16.0.0, SVG Export Plug-In . SVG Version: 6.00 Build 0)  -->
<!DOCTYPE svg PUBLIC "-//W3C//DTD SVG 1.1//EN" "http://www.w3.org/Graphics/SVG/1.1/DTD/svg11.dtd">
<svg version="1.1" id="_x31_" xmlns="http://www.w3.org/2000/svg" xmlns:xlink="http://www.w3.org/1999/xlink" x="0px" y="0px"
	 width="44px" height="44px" viewBox="0 0 44 44" enable-background="new 0 0 44 44" xml:space="preserve">
<path fill-rule="evenodd" clip-rule="evenodd" fill="#ff3c41" d="M29.988,15.414L28.574,14
	C29.045,14.471,29.517,14.943,29.988,15.414z"/>
<path fill-rule="evenodd" clip-rule="evenodd" fill="#ff3c41" d="M23.408,22l7.287-7.293c0.391-0.391,0.391-1.024,0-1.415
	c-0.391-0.39-1.023-0.39-1.414,0l-7.287,7.293l-7.274-7.293c-0.391-0.39-1.024-0.39-1.414,0c-0.391,0.391-0.391,1.024,0,1.415
	c2.428,2.428,4.849,4.864,7.275,7.293c-2.427,2.429-4.848,4.865-7.275,7.293c-0.391,0.39-0.391,1.024,0,1.414
	c0.39,0.391,1.023,0.391,1.414,0c2.428-2.428,4.848-4.864,7.274-7.293l7.287,7.293c0.391,0.391,1.023,0.391,1.414,0
	c0.391-0.39,0.391-1.024,0-1.414L23.408,22z"/>
</svg>
